<svg xmlns="http://www.w3.org/2000/svg" xmlns:xlink="http://www.w3.org/1999/xlink" fill="none" version="1.1" width="172" height="36" viewBox="0 0 172 36"><defs><filter id="master_svg0_163_3725" filterUnits="objectBoundingBox" color-interpolation-filters="sRGB" x="0" y="0" width="1" height="1"><feFlood flood-opacity="0" result="BackgroundImageFix"/><feBlend mode="normal" in="SourceGraphic" in2="BackgroundImageFix" result="shape"/><feColorMatrix in="SourceAlpha" type="matrix" result="hardAlpha" values="0 0 0 0 0 0 0 0 0 0 0 0 0 0 0 0 0 0 127 0"/><feOffset dy="0" dx="0"/><feGaussianBlur stdDeviation="5.721245765686035"/><feComposite in2="hardAlpha" operator="arithmetic" k2="-1" k3="1"/><feColorMatrix type="matrix" values="0 0 0 0 0.7678571343421936 0 0 0 0 0.7678571343421936 0 0 0 0 0.7678571343421936 0 0 0 0.30000001192092896 0"/><feBlend mode="normal" in2="shape" result="effect1_innerShadow"/><feGaussianBlur in="BackgroundImageFix" stdDeviation="15.326873779296875"/><feComposite in2="SourceAlpha" operator="in" result="effect2_foregroundBlur"/><feBlend mode="normal" in="SourceGraphic" in2="effect2_foregroundBlur" result="shape"/></filter><linearGradient x1="0.5" y1="-0.2872057259082794" x2="0.5" y2="0.3711361289024353" id="master_svg1_31_08561"><stop offset="0%" stop-color="#FFFFFF" stop-opacity="1"/><stop offset="100%" stop-color="#151515" stop-opacity="0"/></linearGradient><clipPath id="master_svg2_163_3725"><rect x="0" y="0" width="172" height="36" rx="18"/></clipPath><filter id="master_svg3_163_3730" filterUnits="objectBoundingBox" color-interpolation-filters="sRGB" x="-0.07180850803190078" y="-0.318396210576713" width="1.1436170160638015" height="1.6367924211534262"><feFlood flood-opacity="0" result="BackgroundImageFix"/><feBlend mode="normal" in="SourceGraphic" in2="BackgroundImageFix" result="shape"/><feGaussianBlur stdDeviation="3.0746822357177734" result="effect1_foregroundBlur"/></filter><filter id="master_svg4_163_3731" filterUnits="objectBoundingBox" color-interpolation-filters="sRGB" x="-0.07180850803190078" y="-0.318396210576713" width="1.1436170160638015" height="1.6367924211534262"><feFlood flood-opacity="0" result="BackgroundImageFix"/><feBlend mode="normal" in="SourceGraphic" in2="BackgroundImageFix" result="shape"/><feGaussianBlur stdDeviation="3.0746822357177734" result="effect1_foregroundBlur"/></filter></defs><g filter="url(#master_svg0_163_3725)"><g clip-path="url(#master_svg2_163_3725)"><rect x="0" y="0" width="172" height="36" rx="18" fill="#453ED6" fill-opacity="1"/><g><path d="M38.924,23L38.924,14.06L42.17,14.06Q43.07,14.06,43.757,14.393Q44.444,14.725999999999999,44.831,15.353Q45.218,15.98,45.218,16.856Q45.218,17.786,44.759,18.442999999999998Q44.3,19.1,43.519999999999996,19.4L45.584,23L43.976,23L41.78,19.1L42.704,19.64L40.334,19.64L40.334,23L38.924,23ZM40.334,18.38L42.2,18.38Q42.686,18.38,43.046,18.191Q43.406,18.002,43.607,17.657Q43.808,17.312,43.808,16.85Q43.808,16.381999999999998,43.607,16.04Q43.406,15.698,43.046,15.509Q42.686,15.32,42.2,15.32L40.334,15.32L40.334,18.38ZM48.956,23.144Q48.224000000000004,23.144,47.669,22.814Q47.114000000000004,22.484,46.811,21.893Q46.507999999999996,21.302,46.507999999999996,20.522L46.507999999999996,16.508L47.858000000000004,16.508L47.858000000000004,20.396Q47.858000000000004,20.84,48.038,21.176000000000002Q48.218,21.512,48.545,21.698Q48.872,21.884,49.292,21.884Q49.718,21.884,50.045,21.695Q50.372,21.506,50.555,21.158Q50.738,20.810000000000002,50.738,20.336L50.738,16.508L52.088,16.508L52.088,23L50.798,23L50.798,21.728L50.948,21.896Q50.72,22.502000000000002,50.189,22.823Q49.658,23.144,48.956,23.144ZM53.672,23L53.672,16.508L54.962,16.508L54.962,17.78L54.812,17.612000000000002Q55.046,17.006,55.574,16.685Q56.102000000000004,16.364,56.804,16.364Q57.518,16.364,58.07,16.676000000000002Q58.622,16.988,58.937,17.54Q59.251999999999995,18.092,59.251999999999995,18.80788L59.251999999999995,23L57.902,23L57.902,19.172Q57.902,18.686,57.722,18.344Q57.542,18.002,57.2174,17.813Q56.8929,17.624,56.4704,17.624Q56.048,17.624,55.718,17.813Q55.388000000000005,18.002,55.205,18.347Q55.022,18.692,55.022,19.172L55.022,23L53.672,23ZM65.936,23.144Q64.994,23.144,64.223,22.703Q63.452,22.262,62.995999999999995,21.494Q62.54,20.726,62.54,19.748Q62.54,18.77,62.992999999999995,18.008Q63.446,17.246000000000002,64.214,16.805Q64.982,16.364,65.936,16.364Q66.89,16.364,67.655,16.802Q68.42,17.240000000000002,68.87,18.002Q69.32,18.764,69.32,19.748Q69.32,20.732,68.861,21.5Q68.402,22.268,67.637,22.706Q66.872,23.144,65.936,23.144ZM65.936,21.884Q66.506,21.884,66.95,21.608Q67.394,21.332,67.652,20.846Q67.91,20.36,67.91,19.748Q67.91,19.136,67.652,18.659Q67.394,18.182000000000002,66.95,17.903Q66.506,17.624,65.936,17.624Q65.366,17.624,64.919,17.903Q64.47200000000001,18.182000000000002,64.211,18.659Q63.95,19.136,63.95,19.748Q63.95,20.36,64.211,20.846Q64.47200000000001,21.332,64.919,21.608Q65.366,21.884,65.936,21.884ZM70.64,23L70.64,16.508L71.93,16.508L71.93,17.78L71.78,17.612000000000002Q72.01400000000001,17.006,72.542,16.685Q73.07,16.364,73.77199999999999,16.364Q74.48599999999999,16.364,75.038,16.676000000000002Q75.59,16.988,75.905,17.54Q76.22,18.092,76.22,18.80788L76.22,23L74.87,23L74.87,19.172Q74.87,18.686,74.69,18.344Q74.50999999999999,18.002,74.1854,17.813Q73.8609,17.624,73.4384,17.624Q73.01599999999999,17.624,72.686,17.813Q72.356,18.002,72.173,18.347Q71.99000000000001,18.692,71.99000000000001,19.172L71.99000000000001,23L70.64,23ZM84.068,23.144Q83.114,23.144,82.307,22.799Q81.5,22.454,80.90299999999999,21.833Q80.306,21.212,79.973,20.372Q79.64,19.532,79.64,18.53Q79.64,17.528,79.97,16.685Q80.3,15.842,80.89699999999999,15.221Q81.494,14.6,82.301,14.258Q83.108,13.916,84.068,13.916Q85.00999999999999,13.916,85.75999999999999,14.24Q86.50999999999999,14.564,87.029,15.089Q87.548,15.614,87.77000000000001,16.226L86.49799999999999,16.82Q86.21600000000001,16.106,85.586,15.656Q84.956,15.206,84.068,15.206Q83.18,15.206,82.49600000000001,15.626Q81.812,16.046,81.431,16.79Q81.05,17.534,81.05,18.53Q81.05,19.52,81.431,20.27Q81.812,21.02,82.49600000000001,21.436999999999998Q83.18,21.854,84.068,21.854Q84.956,21.854,85.586,21.407Q86.21600000000001,20.96,86.49799999999999,20.246000000000002L87.77000000000001,20.84Q87.548,21.445999999999998,87.029,21.971Q86.50999999999999,22.496000000000002,85.75999999999999,22.82Q85.00999999999999,23.144,84.068,23.144ZM89.22800000000001,23L89.22800000000001,14.06L90.638,14.06L90.638,21.740000000000002L94.50800000000001,21.740000000000002L94.50800000000001,23L89.22800000000001,23ZM94.904,23L98.048,14.06L99.8,14.06L102.944,23L101.426,23L100.74199999999999,20.996000000000002L97.106,20.996000000000002L96.416,23L94.904,23ZM97.52000000000001,19.736L100.316,19.736L98.726,15.056000000000001L99.122,15.056000000000001L97.52000000000001,19.736ZM105.662,23L103.208,14.06L104.702,14.06L106.694,21.805999999999997L106.322,21.805999999999997L108.392,14.06L109.862,14.06L111.926,21.805999999999997L111.548,21.805999999999997L113.546,14.06L115.04,14.06L112.586,23L110.996,23L108.914,15.379999999999999L109.334,15.379999999999999L107.252,23L105.662,23ZM120.26,23.144Q119.306,23.144,118.499,22.799Q117.692,22.454,117.095,21.833Q116.498,21.212,116.165,20.372Q115.832,19.532,115.832,18.53Q115.832,17.528,116.162,16.685Q116.492,15.842,117.089,15.221Q117.686,14.6,118.493,14.258Q119.3,13.916,120.26,13.916Q121.202,13.916,121.952,14.24Q122.702,14.564,123.221,15.089Q123.74,15.614,123.962,16.226L122.69,16.82Q122.408,16.106,121.778,15.656Q121.148,15.206,120.26,15.206Q119.372,15.206,118.688,15.626Q118.004,16.046,117.623,16.79Q117.242,17.534,117.242,18.53Q117.242,19.52,117.623,20.27Q118.004,21.02,118.688,21.436999999999998Q119.372,21.854,120.26,21.854Q121.148,21.854,121.778,21.407Q122.408,20.96,122.69,20.246000000000002L123.962,20.84Q123.74,21.445999999999998,123.221,21.971Q122.702,22.496000000000002,121.952,22.82Q121.202,23.144,120.26,23.144ZM125.42,23L125.42,14.06L126.83,14.06L126.83,21.740000000000002L130.7,21.740000000000002L130.7,23L125.42,23ZM136.232,23.144Q135.26,23.144,134.423,22.799Q133.586,22.454,132.959,21.83Q132.332,21.206,131.978,20.363Q131.624,19.52,131.624,18.524Q131.624,17.528,131.975,16.685Q132.326,15.842,132.953,15.221Q133.57999999999998,14.6,134.417,14.258Q135.25400000000002,13.916,136.232,13.916Q137.20999999999998,13.916,138.047,14.261Q138.88400000000001,14.606,139.511,15.227Q140.138,15.847999999999999,140.489,16.688Q140.84,17.528,140.84,18.524Q140.84,19.52,140.486,20.363Q140.132,21.206,139.505,21.83Q138.878,22.454,138.041,22.799Q137.204,23.144,136.232,23.144ZM136.232,21.854Q136.928,21.854,137.51,21.602Q138.09199999999998,21.35,138.524,20.897Q138.95600000000002,20.444000000000003,139.19299999999998,19.838Q139.43,19.232,139.43,18.524Q139.43,17.822,139.19299999999998,17.219Q138.95600000000002,16.616,138.524,16.16Q138.09199999999998,15.704,137.51,15.455Q136.928,15.206,136.232,15.206Q135.536,15.206,134.954,15.455Q134.372,15.704,133.94,16.16Q133.50799999999998,16.616,133.27100000000002,17.219Q133.034,17.822,133.034,18.524Q133.034,19.232,133.27100000000002,19.838Q133.50799999999998,20.444000000000003,133.94,20.897Q134.372,21.35,134.957,21.602Q135.542,21.854,136.232,21.854ZM145.772,23.144Q144.76999999999998,23.144,143.99599999999998,22.724Q143.22199999999998,22.304000000000002,142.787,21.572Q142.352,20.84,142.352,19.904L142.352,14.06L143.762,14.06L143.762,19.844Q143.762,20.432000000000002,144.01999999999998,20.887999999999998Q144.27800000000002,21.344,144.731,21.599Q145.184,21.854,145.772,21.854Q146.36599999999999,21.854,146.816,21.599Q147.26600000000002,21.344,147.524,20.887999999999998Q147.78199999999998,20.432000000000002,147.78199999999998,19.844L147.78199999999998,14.06L149.192,14.06L149.192,19.904Q149.192,20.84,148.757,21.572Q148.322,22.304000000000002,147.551,22.724Q146.78,23.144,145.772,23.144ZM150.96800000000002,23L150.96800000000002,14.06L153.89600000000002,14.06Q155.286,14.06,156.313,14.621Q157.34,15.182,157.904,16.187Q158.46800000000002,17.192,158.46800000000002,18.52681Q158.46800000000002,19.85,157.904,20.861Q157.34,21.872,156.313,22.436Q155.286,23,153.89600000000002,23L150.96800000000002,23ZM152.378,21.740000000000002L153.92000000000002,21.740000000000002Q154.872,21.740000000000002,155.56900000000002,21.344Q156.26600000000002,20.948,156.65,20.22556Q157.034,19.50294,157.034,18.52138Q157.034,17.54,156.647,16.82337Q156.26,16.106749999999998,155.564,15.71338Q154.868,15.32,153.92000000000002,15.32L152.378,15.32L152.378,21.740000000000002Z" fill="#FFFFFF" fill-opacity="1"/></g><g filter="url(#master_svg3_163_3730)"><ellipse cx="86.36441802978516" cy="51.381370544433594" rx="85.6355972290039" ry="19.313560485839844" fill="#544EDE" fill-opacity="1"/></g><g filter="url(#master_svg4_163_3731)"><ellipse cx="86.36441802978516" cy="-18.584754943847656" rx="85.6355972290039" ry="19.313560485839844" fill="#FFCF86" fill-opacity="1"/></g><g><g><g><path d="M28.39425491218567,21.03918033996582C27.655654912185668,20.46719033996582,27.08141491218567,19.69321033996582,26.80412491218567,18.78998033996582C26.60567491218567,18.14448033996582,26.223144912185667,17.55007033996582,25.66558491218567,17.09726933996582C24.180054912185668,15.890627339965821,22.018744912185667,16.14294833996582,20.83774491218567,17.66073033996582C20.56807491218567,18.00747033996582,20.373374912185668,18.38983033996582,20.24989491218567,18.78764033996582C19.96884491218567,19.697840339965822,19.41282491218567,20.49042033996582,18.65904491218567,21.05387033996582C17.682581912185668,21.78296033996582,17.06290811218567,22.98186033996582,17.118965822185668,24.32469033996582C17.200023012185667,26.27206033996582,18.72344491218567,27.86642033996582,20.627134912185667,27.99182033996582C21.27484491218567,28.03442033996582,21.889984912185668,27.90902033996582,22.435424912185667,27.65512033996582C23.136124912185668,27.32852033996582,23.94294491218567,27.329320339965818,24.65121491218567,27.63812033996582C25.15123491218567,27.856420339965823,25.70646491218567,27.96702033996582,26.28977491218567,27.94152033996582C28.26325491218567,27.85482033996582,29.84945491218567,26.191560339965818,29.88515491218567,24.17379033996582C29.907754912185666,22.89439033996582,29.317654912185667,21.75433033996582,28.394954912185668,21.03993033996582L28.39425491218567,21.03918033996582Z" fill="#FFFFFF" fill-opacity="1" style="mix-blend-mode:passthrough"/></g></g><g><g><path d="M30.358458481140136,13.558004574432372C30.433438481140136,13.230614574432373,30.379668481140136,12.901659574432372,30.22664848114014,12.629230574432373C30.066788481140136,12.345175574432373,29.800908481140137,12.123055574432373,29.466818481140137,12.030163874432374C29.291838481140136,11.981417164432374,29.115319481140137,11.973664674432372,28.947157481140138,11.999990074432374C29.066844481140137,12.099825574432373,29.167590481140138,12.221328574432373,29.243338481140135,12.356775574432373C29.40316848114014,12.640831574432372,29.456208481140138,12.987574574432372,29.366078481140136,13.328914574432373L28.422172481140137,16.934874574432374L28.445645481140136,16.906234574432375L28.21991888114014,17.766174574432373L28.221419881140136,17.766174574432373C28.003254481140136,18.695694574432373,28.547919481140138,19.637594574432374,29.456968481140137,19.886864574432373C30.365288481140137,20.135284574432372,31.298568481140137,19.59739457443237,31.564448481140136,18.681754574432375L31.565978481140135,18.681754574432375L31.578098481140138,18.636104574432373L31.88111848114014,17.481294574432372C32.28639848114014,15.936454574432373,31.625068481140136,14.357524574432373,30.359228481140136,13.557224574432373L30.358458481140136,13.558004574432372Z" fill="#FFFFFF" fill-opacity="1" style="mix-blend-mode:passthrough"/></g></g><g><g><path d="M18.77781,17.767264574432375L18.77934,17.767264574432375L18.55358,16.906574574432373L18.57706,16.935204574432372L17.63317,13.329244574432373C17.54226,12.987934574432373,17.596049999999998,12.641191574432373,17.75589,12.357133574432373C17.83164,12.221686574432374,17.93241,12.100936574432373,18.0521,12.000320174432373C17.88391,11.973241974432373,17.7074,11.981747214432373,17.53241,12.030521574432374C17.19834,12.123385574432373,16.93244,12.344752574432373,16.7726,12.629591574432373C16.61958,12.902015574432372,16.56579,13.230974574432373,16.64079,13.558364574432373C15.374932,14.358664574432373,14.713594,15.937564574432372,15.11888,17.482434574432375L15.421898,18.637244574432373L15.434022,18.683654574432374L15.435534,18.683654574432374C15.701431,19.599284574432374,16.63473,20.137174574432372,17.54302,19.888714574432374C18.45131,19.640294574432374,18.99597,18.697594574432372,18.778570000000002,17.768824574432372L18.77781,17.767264574432375Z" fill="#FFFFFF" fill-opacity="1" style="mix-blend-mode:passthrough"/></g></g><g><g><path d="M19.13152503401184,14.80741L19.13455503401184,14.80741C19.39816603401184,15.85228,20.42011103401184,16.515610000000002,21.468551034011842,16.29967C22.516971034011842,16.08372,23.20712103401184,15.06749,23.05407103401184,13.99939L23.05710103401184,13.99939L23.03590103401184,13.89026L23.03363103401184,13.877880000000001L22.04125103401184,8.83615C21.94504103401184,8.35706,22.04881103401184,7.884157,22.29274103401184,7.5064530000000005C22.40940103401184,7.326116,22.557881034011842,7.168225,22.73137103401184,7.0412922C22.50182103401184,6.9894355,22.25792103401184,6.9847918,22.01245103401184,7.0366485C21.543531034011842,7.134944,21.15870103401184,7.417446,20.91404103401184,7.795148C20.67084103401184,8.1713,20.567831034011842,8.64111,20.661011034011842,9.11711C19.28453903401184,9.99325,18.51411903401184,11.67821,18.85350173401184,13.39878L19.13152503401184,14.80741Z" fill="#FFFFFF" fill-opacity="1" style="mix-blend-mode:passthrough"/></g></g><g><g><path d="M25.641163171691893,16.30014C26.689573171691894,16.516080000000002,27.711513171691895,15.85275,27.975133171691894,14.807120000000001L27.978163171691893,14.807120000000001L28.256183171691895,13.398489999999999C28.595563171691893,11.67869,27.825143171691895,9.99373,26.448673171691894,9.116810000000001C26.541863171691894,8.64081,26.438853171691896,8.17023,26.196413171691894,7.7948450000000005C25.952513171691894,7.417145,25.566923171691894,7.134642,25.097993171691893,7.0363464C24.852532171691895,6.9852636,24.608630171691896,6.9891334,24.379079171691895,7.0409901C24.553330171691893,7.167923,24.701785171691895,7.325813,24.817704171691894,7.506155C25.061643171691895,7.883853,25.164653171691896,8.35676,25.069193171691893,8.83585L24.075316871691893,13.88528L24.075316871691893,13.88997L24.074552171691895,13.88997L24.053344271691895,13.9983L24.056373671691894,13.9983C23.902595171691896,15.06716,24.593453171691895,16.08339,25.641893171691894,16.299329999999998L25.641163171691893,16.30014Z" fill="#FFFFFF" fill-opacity="1" style="mix-blend-mode:passthrough"/></g></g></g><rect x="0.3074682354927063" y="0.3074682354927063" width="171.3850635290146" height="35.38506352901459" rx="17.692531764507294" stroke="url(#master_svg1_31_08561)" fill-opacity="0" fill="none" stroke-width="0.6149364709854126"/></g></g></svg>